<svg width="223" height="22" viewBox="0 0 223 22" fill="none" xmlns="http://www.w3.org/2000/svg">
<path d="M5.90379 5.00049H2.40122C2.1615 5.00049 1.95768 5.17467 1.92028 5.41135L0.503678 14.3929C0.475503 14.57 0.612789 14.7299 0.792526 14.7299H2.46471C2.70439 14.7299 2.90821 14.5558 2.94561 14.3186L3.32767 11.8962C3.36456 11.659 3.56888 11.4849 3.80806 11.4849H4.91687C7.22411 11.4849 8.55568 10.3684 8.9035 8.1559C9.06017 7.18792 8.91008 6.4274 8.45684 5.89477C7.95904 5.30984 7.07609 5.00049 5.90379 5.00049ZM6.30789 8.28088C6.11634 9.5377 5.15605 9.5377 4.22752 9.5377H3.69899L4.06977 7.19052C4.09182 7.04864 4.21471 6.94416 4.35813 6.94416H4.60035C5.23285 6.94416 5.82954 6.94416 6.13783 7.30468C6.32171 7.51981 6.37806 7.83938 6.30789 8.28088Z" fill="#283B82"/>
<path d="M16.3735 8.24074H14.6964C14.5534 8.24074 14.43 8.34522 14.4079 8.4871L14.3338 8.95622L14.2164 8.78617C13.8534 8.25915 13.0436 8.08301 12.2354 8.08301C10.3819 8.08301 8.7989 9.4868 8.4906 11.456C8.33031 12.4383 8.55821 13.3776 9.11544 14.0326C9.62652 14.6348 10.3579 14.8858 11.2281 14.8858C12.7215 14.8858 13.5496 13.9256 13.5496 13.9256L13.4749 14.3917C13.4466 14.5699 13.5839 14.7297 13.7627 14.7297H15.2734C15.5137 14.7297 15.7165 14.5555 15.7544 14.3184L16.6609 8.57772C16.6896 8.40102 16.5529 8.24074 16.3735 8.24074ZM14.0356 11.5052C13.8739 12.4634 13.1133 13.1067 12.1433 13.1067C11.6563 13.1067 11.2669 12.9505 11.017 12.6544C10.7692 12.3605 10.6749 11.942 10.7538 11.476C10.9049 10.5259 11.6783 9.86172 12.6334 9.86172C13.1097 9.86172 13.4969 10.0199 13.7519 10.3185C14.0075 10.6201 14.1089 11.0411 14.0356 11.5052Z" fill="#283B82"/>
<path d="M25.3068 8.24072H23.6214C23.4605 8.24072 23.3094 8.32062 23.2183 8.45432L20.8936 11.8785L19.9083 8.58798C19.8463 8.38206 19.6564 8.24072 19.4412 8.24072H17.7849C17.5836 8.24072 17.4439 8.43737 17.5079 8.62687L19.3644 14.0751L17.619 16.5391C17.4817 16.7332 17.6199 17.0001 17.8572 17.0001H19.5406C19.7004 17.0001 19.8499 16.9222 19.9405 16.7911L25.5465 8.69913C25.6807 8.5055 25.5429 8.24072 25.3068 8.24072Z" fill="#283B82"/>
<path d="M30.8872 5.00049H27.3841C27.1449 5.00049 26.9411 5.17467 26.9037 5.41135L25.4871 14.3929C25.4589 14.57 25.5962 14.7299 25.7749 14.7299H27.5726C27.7395 14.7299 27.8825 14.608 27.9085 14.442L28.3105 11.8962C28.3474 11.659 28.5518 11.4849 28.7909 11.4849H29.8992C32.207 11.4849 33.5381 10.3684 33.8863 8.1559C34.0436 7.18792 33.8925 6.4274 33.4392 5.89477C32.9419 5.30984 32.0595 5.00049 30.8872 5.00049ZM31.2913 8.28088C31.1002 9.5377 30.14 9.5377 29.2109 9.5377H28.6829L29.0542 7.19052C29.0762 7.04864 29.1981 6.94416 29.342 6.94416H29.5842C30.2163 6.94416 30.8134 6.94416 31.1217 7.30468C31.3056 7.51981 31.3614 7.83938 31.2913 8.28088Z" fill="#469BDB"/>
<path d="M41.3568 8.24074H39.6805C39.5366 8.24074 39.4141 8.34522 39.3926 8.4871L39.3184 8.95622L39.2006 8.78617C38.8375 8.25915 38.0283 8.08301 37.2201 8.08301C35.3666 8.08301 33.7841 9.4868 33.4758 11.456C33.316 12.4383 33.5429 13.3776 34.1001 14.0326C34.6123 14.6348 35.3425 14.8858 36.2127 14.8858C37.7061 14.8858 38.5343 13.9256 38.5343 13.9256L38.4595 14.3917C38.4314 14.5699 38.5685 14.7297 38.7484 14.7297H40.2587C40.4979 14.7297 40.7018 14.5555 40.7391 14.3184L41.6461 8.57772C41.6737 8.40102 41.5365 8.24074 41.3568 8.24074ZM39.0188 11.5052C38.858 12.4634 38.0964 13.1067 37.1265 13.1067C36.6404 13.1067 36.2501 12.9505 36.0001 12.6544C35.7524 12.3605 35.659 11.942 35.737 11.476C35.889 10.5259 36.6614 9.86172 37.6165 9.86172C38.0929 9.86172 38.48 10.0199 38.735 10.3185C38.9916 10.6201 39.093 11.0411 39.0188 11.5052Z" fill="#469BDB"/>
<path d="M43.3339 5.24733L41.8962 14.3933C41.8682 14.5705 42.0053 14.7303 42.1841 14.7303H43.6293C43.8696 14.7303 44.0734 14.5562 44.1103 14.3191L45.5279 5.33805C45.5561 5.16077 45.4189 5.00049 45.2401 5.00049H43.6217C43.4788 5.00092 43.3559 5.10553 43.3339 5.24733Z" fill="#469BDB"/>
<g clip-path="url(#clip0_37_4710)">
<path d="M97.9255 11.0613C97.9272 17.0424 93.0799 21.8919 87.0988 21.8935C81.1176 21.895 76.2682 17.0479 76.2666 11.0668C76.2666 11.0649 76.2666 11.0633 76.2666 11.0613C76.265 5.08037 81.1123 0.230593 87.0932 0.229004C93.0744 0.227415 97.9239 5.07475 97.9255 11.0558C97.9255 11.0576 97.9255 11.0594 97.9255 11.0613Z" fill="#FF9900"/>
<path d="M72.4999 0.231988C66.5543 0.269755 61.7402 5.10694 61.7402 11.0615C61.7402 17.0393 66.5918 21.8909 72.5697 21.8909C75.3753 21.8909 77.9327 20.8217 79.8571 19.0692C79.8571 19.0692 79.8567 19.069 79.8563 19.0688H79.8586C80.2526 18.7097 80.6201 18.3222 80.958 17.9091H78.7393C78.443 17.5512 78.1737 17.1783 77.9319 16.7936H81.7584C81.9911 16.4212 82.2018 16.0345 82.3888 15.6339H77.3001C77.1267 15.2621 76.9761 14.8819 76.8475 14.4962H82.8419C83.2032 13.4167 83.3992 12.2618 83.3992 11.0614C83.3992 10.2655 83.3129 9.48947 83.1497 8.74232H76.5296C76.6116 8.35781 76.7151 7.97794 76.8386 7.60468H82.8352C82.7011 7.20745 82.5454 6.82038 82.3683 6.44515H77.2995C77.4823 6.05453 77.6895 5.67454 77.9209 5.30763H81.7446C81.4901 4.90222 81.2085 4.5149 80.9041 4.14799H78.7721C79.1018 3.76005 79.4647 3.39473 79.8586 3.0541C77.9341 1.30143 75.376 0.231988 72.5697 0.231988C72.5464 0.231988 72.5233 0.231866 72.4999 0.231988Z" fill="#CC0000"/>
<path d="M96.8397 16.7227C96.8986 16.7227 96.9559 16.7379 97.0119 16.768C97.0681 16.7981 97.1114 16.8415 97.1427 16.8978C97.1739 16.9535 97.1896 17.0123 97.1896 17.0732C97.1896 17.1333 97.1741 17.1915 97.1433 17.2472C97.1126 17.3028 97.0693 17.3462 97.0136 17.3772C96.9585 17.4076 96.9002 17.423 96.8395 17.423C96.7789 17.423 96.7207 17.4076 96.6653 17.3772C96.6096 17.3461 96.5666 17.303 96.5353 17.2472C96.5045 17.1915 96.4893 17.1333 96.4893 17.0732C96.4893 17.0123 96.5048 16.9535 96.5362 16.8978C96.5677 16.8415 96.6112 16.7984 96.6671 16.768C96.7236 16.7379 96.7809 16.7227 96.8397 16.7227ZM96.8397 16.7807C96.7907 16.7807 96.7427 16.7934 96.6959 16.8187C96.6495 16.844 96.6132 16.8798 96.587 16.9273C96.5605 16.9739 96.5473 17.0223 96.5473 17.0732C96.5473 17.1235 96.5603 17.1722 96.5858 17.2184C96.612 17.2645 96.6481 17.3006 96.6943 17.3266C96.7409 17.3523 96.7892 17.3651 96.8395 17.3651C96.8901 17.3651 96.9385 17.3523 96.9849 17.3266C97.0311 17.3006 97.0671 17.2645 97.0929 17.2184C97.1185 17.1722 97.1312 17.1237 97.1312 17.0732C97.1312 17.0223 97.1182 16.9738 97.0919 16.9273C97.0659 16.8798 97.0295 16.844 96.9827 16.8187C96.9363 16.7933 96.8887 16.7807 96.8397 16.7807ZM96.6862 17.2665V16.8899H96.816C96.86 16.8899 96.892 16.8933 96.9118 16.9006C96.9316 16.9076 96.9473 16.9194 96.9592 16.9369C96.9708 16.9541 96.9768 16.9725 96.9768 16.992C96.9768 17.0197 96.967 17.0436 96.9472 17.0639C96.9279 17.0842 96.9016 17.0958 96.8691 17.0982C96.8824 17.1037 96.8931 17.1107 96.9014 17.1183C96.9167 17.133 96.935 17.1578 96.957 17.1928L97.0028 17.2665H96.9288L96.8955 17.2073C96.8692 17.1606 96.8481 17.1315 96.8318 17.1195C96.8207 17.1111 96.8045 17.1067 96.7833 17.1067H96.7475V17.2669H96.6864M96.747 17.0545H96.8208C96.856 17.0545 96.8799 17.0491 96.8927 17.0387C96.9057 17.028 96.9121 17.0143 96.9121 16.9969C96.9121 16.9857 96.9092 16.9757 96.903 16.9671C96.8966 16.9582 96.8881 16.9518 96.8769 16.9473C96.8661 16.943 96.8458 16.9406 96.8162 16.9406H96.7473V17.0545" fill="#FCB340"/>
<path d="M76.1627 14.1678L76.307 13.1876C76.2281 13.1876 76.1123 13.2217 76.0098 13.2217C75.6085 13.2217 75.5583 13.0072 75.5899 12.8505L75.9854 10.8791H76.5955L76.7213 9.76646H76.1462L76.2633 9.09229H75.0604C75.035 9.11771 74.3799 12.8839 74.3799 13.3427C74.3799 14.0216 74.761 14.3238 75.2985 14.319C75.7192 14.3155 76.0471 14.199 76.1627 14.1678Z" fill="#000066"/>
<path d="M76.5283 12.2993C76.5283 13.9288 77.6038 14.3159 78.5202 14.3159C79.3661 14.3159 79.8096 14.1198 79.8096 14.1198L80.0128 13.0076C80.0128 13.0076 79.298 13.2982 78.7171 13.2982C77.4788 13.2982 77.6959 12.375 77.6959 12.375L80.0747 12.3822C80.0747 12.3822 80.2262 11.6353 80.2262 11.3308C80.2262 10.571 79.8122 9.63818 78.5462 9.63818C77.3868 9.63843 76.5283 10.8877 76.5283 12.2993ZM78.5506 10.6707C79.2013 10.6707 79.0813 11.4021 79.0813 11.4614H77.8011C77.8011 11.3856 77.922 10.6707 78.5506 10.6707Z" fill="#000066"/>
<path d="M85.8517 14.1676L86.0581 12.9107C86.0581 12.9107 85.492 13.1944 85.1039 13.1944C84.2859 13.1944 83.9577 12.5698 83.9577 11.8987C83.9577 10.5375 84.6615 9.78851 85.4449 9.78851C86.0326 9.78851 86.504 10.1184 86.504 10.1184L86.6922 8.89702C86.6922 8.89702 86.1356 8.49503 85.5365 8.49271C83.7343 8.48562 82.7031 9.74035 82.7031 11.9094C82.7031 13.3471 83.4668 14.3255 84.8427 14.3255C85.2318 14.3255 85.8517 14.1676 85.8517 14.1676Z" fill="#000066"/>
<path d="M69.8215 9.65625C69.0309 9.65625 68.4249 9.91035 68.4249 9.91035L68.2574 10.9037C68.2574 10.9037 68.7577 10.7004 69.514 10.7004C69.9434 10.7004 70.2575 10.7487 70.2575 11.0976C70.2575 11.3095 70.2191 11.3878 70.2191 11.3878C70.2191 11.3878 69.8803 11.3595 69.7234 11.3595C68.5977 11.3595 67.6787 11.7851 67.6787 13.0682C67.6787 14.0793 68.366 14.3112 68.7919 14.3112C69.6055 14.3112 69.9276 13.7975 69.9462 13.796L69.9368 14.2224H70.9521L71.405 11.047C71.405 9.69952 70.2297 9.65625 69.8215 9.65625ZM69.9973 12.2347C70.0194 12.4285 69.9472 13.3452 69.2527 13.3452C68.8946 13.3452 68.8016 13.0714 68.8016 12.9098C68.8016 12.594 68.973 12.2152 69.8178 12.2152C70.0146 12.2152 69.9641 12.2294 69.9973 12.2347Z" fill="#000066"/>
<path d="M72.4834 14.288C72.7431 14.288 74.2278 14.3541 74.2278 12.822C74.2278 11.3895 72.8535 11.6727 72.8535 11.097C72.8535 10.8108 73.0775 10.7206 73.4871 10.7206C73.6495 10.7206 74.2751 10.7723 74.2751 10.7723L74.4204 9.75414C74.4204 9.75414 74.0156 9.66357 73.3566 9.66357C72.5036 9.66357 71.6378 10.0041 71.6378 11.1691C71.6378 12.4894 73.0815 12.3567 73.0815 12.9129C73.0815 13.284 72.6781 13.3146 72.3672 13.3146C71.8293 13.3146 71.345 13.1299 71.3433 13.1388L71.1895 14.1466C71.2174 14.1551 71.5163 14.288 72.4834 14.288Z" fill="#000066"/>
<path d="M95.3627 8.73242L95.1543 10.2857C95.1543 10.2857 94.72 9.68624 94.0406 9.68624C92.7623 9.68624 92.1035 10.9602 92.1035 12.4235C92.1035 13.3683 92.5733 14.2944 93.5334 14.2944C94.2241 14.2944 94.607 13.8127 94.607 13.8127L94.5563 14.224H95.678L96.5589 8.74085L95.3627 8.73242ZM94.8675 11.7514C94.8675 12.3605 94.5658 13.1741 93.9409 13.1741C93.5258 13.1741 93.3312 12.8256 93.3312 12.2789C93.3312 11.3849 93.7327 10.7952 94.2396 10.7952C94.6544 10.7952 94.8675 11.0799 94.8675 11.7514Z" fill="#000066"/>
<path d="M63.578 14.2289L64.2799 10.0892L64.383 14.2289H65.1774L66.6593 10.0892L66.0029 14.2289H67.1833L68.0922 8.73842L66.2171 8.72412L65.1017 12.0857L65.0712 8.73842H63.3527L62.4307 14.2289H63.578Z" fill="#000066"/>
<path d="M81.3434 14.2365C81.679 12.328 81.7985 10.8208 82.7773 11.1329C82.9179 10.3942 83.2529 9.75182 83.4059 9.43918C83.4059 9.43918 83.3575 9.36719 83.055 9.36719C82.5386 9.36719 81.8491 10.4151 81.8491 10.4151L81.9522 9.76722H80.8783L80.1592 14.2364L81.3434 14.2365Z" fill="#000066"/>
<path d="M88.2669 9.65625C87.4759 9.65625 86.8699 9.91035 86.8699 9.91035L86.7026 10.9037C86.7026 10.9037 87.2031 10.7004 87.9591 10.7004C88.3886 10.7004 88.7025 10.7487 88.7025 11.0976C88.7025 11.3095 88.6643 11.3878 88.6643 11.3878C88.6643 11.3878 88.3256 11.3595 88.1687 11.3595C87.0429 11.3595 86.124 11.7851 86.124 13.0682C86.124 14.0793 86.8112 14.3112 87.2371 14.3112C88.0505 14.3112 88.3728 13.7975 88.3912 13.796L88.3817 14.2224H89.3973L89.8501 11.047C89.8502 9.69952 88.6749 9.65625 88.2669 9.65625ZM88.4425 12.2347C88.4645 12.4285 88.3922 13.3452 87.6979 13.3452C87.3395 13.3452 87.2466 13.0714 87.2466 12.9098C87.2466 12.594 87.418 12.2152 88.2629 12.2152C88.4598 12.2152 88.4095 12.2294 88.4425 12.2347Z" fill="#000066"/>
<path d="M91.0194 14.2365C91.2037 12.8324 91.5449 10.8612 92.4532 11.1329C92.5936 10.3942 92.4582 10.3962 92.1558 10.3962C91.6391 10.3962 91.5247 10.415 91.5247 10.415L91.6278 9.76709H90.5541L89.835 14.2364L91.0194 14.2365Z" fill="#000066"/>
<path d="M76.4638 13.8183L76.6081 12.8382C76.5293 12.8382 76.4133 12.872 76.311 12.872C75.9096 12.872 75.8654 12.6586 75.8909 12.5008L76.2152 10.501H76.8252L76.9725 9.41685H76.3973L76.5144 8.74268H75.3613C75.3359 8.7681 74.6807 12.5344 74.6807 12.993C74.6807 13.6719 75.0619 13.9743 75.5994 13.9694C76.0203 13.9658 76.3481 13.8494 76.4638 13.8183Z" fill="white"/>
<path d="M76.8291 11.9498C76.8291 13.5793 77.9047 13.9665 78.821 13.9665C79.6667 13.9665 80.0389 13.7774 80.0389 13.7774L80.242 12.6653C80.242 12.6653 79.5987 12.9488 79.0176 12.9488C77.7795 12.9488 77.9963 12.0256 77.9963 12.0256H80.3396C80.3396 12.0256 80.4909 11.2785 80.4909 10.974C80.4909 10.2143 80.1127 9.28857 78.8467 9.28857C77.6873 9.28882 76.8291 10.5381 76.8291 11.9498ZM78.8511 10.3212C79.5019 10.3212 79.3818 11.0525 79.3818 11.1116H78.1017C78.1017 11.0361 78.2227 10.3212 78.8511 10.3212Z" fill="white"/>
<path d="M86.1523 13.8181L86.3586 12.561C86.3586 12.561 85.7928 12.8447 85.4045 12.8447C84.5866 12.8447 84.2586 12.2201 84.2586 11.5491C84.2586 10.1879 84.9623 9.43908 85.7458 9.43908C86.3333 9.43908 86.8048 9.76896 86.8048 9.76896L86.993 8.54759C86.993 8.54759 86.2938 8.26465 85.6944 8.26465C84.3633 8.26465 83.0684 9.4194 83.0684 11.5881C83.0684 13.0262 83.7676 13.976 85.1436 13.976C85.5326 13.9761 86.1523 13.8181 86.1523 13.8181Z" fill="white"/>
<path d="M70.1214 9.30664C69.3308 9.30664 68.7247 9.56074 68.7247 9.56074L68.5574 10.554C68.5574 10.554 69.0576 10.3508 69.8138 10.3508C70.2432 10.3508 70.5573 10.3991 70.5573 10.748C70.5573 10.9599 70.5188 11.0382 70.5188 11.0382C70.5188 11.0382 70.1801 11.0098 70.0233 11.0098C69.0261 11.0098 67.9785 11.4354 67.9785 12.7185C67.9785 13.7295 68.6658 13.9615 69.0917 13.9615C69.9052 13.9615 70.2559 13.4336 70.2746 13.432L70.2366 13.8726H71.2519L71.7048 10.6972C71.7048 9.35003 70.5297 9.30664 70.1214 9.30664ZM70.3684 11.8921C70.3904 12.0861 70.2468 12.9953 69.5526 12.9953C69.1945 12.9953 69.1014 12.7218 69.1014 12.56C69.1014 12.2444 69.2728 11.8655 70.1178 11.8655C70.3143 11.8657 70.3353 11.8868 70.3684 11.8921Z" fill="white"/>
<path d="M72.7841 13.938C73.0438 13.938 74.5286 14.004 74.5286 12.4719C74.5286 11.0396 73.1542 11.3226 73.1542 10.7471C73.1542 10.4607 73.3782 10.3705 73.7876 10.3705C73.9502 10.3705 74.5756 10.4222 74.5756 10.4222L74.7211 9.40404C74.7211 9.40404 74.3163 9.31348 73.6572 9.31348C72.8042 9.31348 71.9384 9.65399 71.9384 10.819C71.9384 12.1391 73.3821 12.0066 73.3821 12.5628C73.3821 12.9339 72.9788 12.9641 72.668 12.9641C72.1301 12.9641 71.6457 12.7796 71.644 12.7884L71.4902 13.7962C71.5181 13.8048 71.8168 13.938 72.7841 13.938Z" fill="white"/>
<path d="M95.7036 8.39295L95.4548 9.93625C95.4548 9.93625 95.0208 9.33675 94.3414 9.33675C93.2849 9.33675 92.4043 10.6105 92.4043 12.0742C92.4043 13.0189 92.874 13.9446 93.8342 13.9446C94.5249 13.9446 94.9078 13.4631 94.9078 13.4631L94.8571 13.8744H95.9786L96.8594 8.39111L95.7036 8.39295ZM95.1681 11.4021C95.1681 12.0111 94.8666 12.8246 94.2414 12.8246C93.8265 12.8246 93.632 12.4763 93.632 11.9296C93.632 11.0356 94.0335 10.4458 94.5401 10.4458C94.9552 10.4457 95.1681 10.7308 95.1681 11.4021Z" fill="white"/>
<path d="M63.8783 13.8793L64.5803 9.73959L64.6833 13.8793H65.4777L66.9597 9.73959L66.3032 13.8793H67.4836L68.3927 8.38867H66.5673L65.4306 11.7575L65.3714 8.38867H63.6888L62.7666 13.8793H63.8783Z" fill="white"/>
<path d="M81.644 13.8867C81.9797 11.9781 82.0419 10.4283 82.8428 10.712C82.983 9.9733 83.1183 9.68754 83.2713 9.3749C83.2713 9.3749 83.1996 9.35986 83.049 9.35986C82.5326 9.35986 82.15 10.0653 82.15 10.0653L82.2528 9.41743H81.1792L80.46 13.8867H81.644Z" fill="white"/>
<path d="M88.8127 9.30664C88.0221 9.30664 87.416 9.56074 87.416 9.56074L87.2488 10.554C87.2488 10.554 87.749 10.3508 88.5052 10.3508C88.9346 10.3508 89.2484 10.3991 89.2484 10.748C89.2484 10.9599 89.2102 11.0382 89.2102 11.0382C89.2102 11.0382 88.8715 11.0098 88.7146 11.0098C87.7175 11.0098 86.6699 11.4354 86.6699 12.7185C86.6699 13.7295 87.3571 13.9615 87.783 13.9615C88.5965 13.9615 88.9472 13.4336 88.9657 13.432L88.928 13.8726C88.928 13.8726 89.9429 13.8726 89.9433 13.8726L90.3961 10.6972C90.3962 9.35003 89.2209 9.30664 88.8127 9.30664ZM89.0601 11.8921C89.0821 12.0861 88.9384 12.9953 88.2439 12.9953C87.8858 12.9953 87.7929 12.7218 87.7929 12.56C87.7929 12.2444 87.9644 11.8655 88.8092 11.8655C89.0057 11.8657 89.0266 11.8868 89.0601 11.8921Z" fill="white"/>
<path d="M91.3246 13.8867C91.6603 11.9781 91.7225 10.4283 92.5232 10.712C92.6637 9.9733 92.7991 9.68754 92.952 9.3749C92.952 9.3749 92.8802 9.35986 92.7297 9.35986C92.2133 9.35986 91.8307 10.0653 91.8307 10.0653L91.9335 9.41743H90.8599L90.1406 13.8867H91.3246Z" fill="white"/>
<path d="M96.835 13.1973C96.8936 13.1973 96.9513 13.2123 97.0069 13.2429C97.063 13.2724 97.1066 13.3159 97.1379 13.3723C97.1693 13.4283 97.1847 13.4866 97.1847 13.5476C97.1847 13.6078 97.1693 13.666 97.1384 13.7216C97.1077 13.7772 97.0646 13.8208 97.009 13.8515C96.9535 13.8821 96.8953 13.8975 96.8349 13.8975C96.774 13.8975 96.7159 13.8821 96.6603 13.8515C96.6048 13.8206 96.5617 13.7772 96.5309 13.7216C96.4997 13.666 96.4844 13.6078 96.4844 13.5476C96.4844 13.4866 96.4999 13.4283 96.5313 13.3723C96.5628 13.3159 96.6066 13.2727 96.6625 13.2429C96.7188 13.2123 96.7765 13.1973 96.835 13.1973ZM96.835 13.255C96.786 13.255 96.7381 13.2677 96.6913 13.2932C96.6446 13.3181 96.6083 13.3542 96.582 13.4014C96.5559 13.4479 96.5427 13.4967 96.5427 13.5473C96.5427 13.5979 96.5554 13.6463 96.5809 13.6925C96.607 13.7386 96.6431 13.7748 96.6898 13.8008C96.736 13.8262 96.7843 13.8391 96.835 13.8391C96.8854 13.8391 96.934 13.8262 96.9802 13.8008C97.0264 13.7748 97.0626 13.7386 97.0883 13.6925C97.1141 13.6459 97.1267 13.5979 97.1267 13.5473C97.1267 13.4967 97.1136 13.4479 97.0874 13.4014C97.0614 13.3542 97.0251 13.3181 96.9782 13.2932C96.9317 13.2678 96.8842 13.255 96.835 13.255ZM96.6816 13.7409V13.3641H96.8113C96.8554 13.3641 96.8877 13.3676 96.9073 13.3749C96.9271 13.3816 96.9426 13.3937 96.9547 13.4112C96.9665 13.4285 96.9725 13.4467 96.9725 13.4663C96.9725 13.4938 96.9625 13.5179 96.9427 13.5381C96.9234 13.5584 96.8974 13.5702 96.8649 13.5724C96.8778 13.578 96.8886 13.5847 96.8969 13.5923C96.9119 13.6072 96.9305 13.6321 96.9525 13.667L96.9986 13.7408H96.9241L96.891 13.6815C96.8646 13.6347 96.8435 13.6056 96.8273 13.5938C96.8162 13.5851 96.8 13.5808 96.7786 13.5808H96.743V13.741L96.6816 13.7409ZM96.7425 13.5289H96.8163C96.8517 13.5289 96.8755 13.5236 96.8882 13.5131C96.901 13.5028 96.9078 13.4888 96.9078 13.4713C96.9078 13.4602 96.9047 13.4501 96.8986 13.4417C96.8924 13.4327 96.8837 13.4262 96.8726 13.4217C96.8614 13.4174 96.8415 13.4152 96.8117 13.4152H96.7426V13.5289" fill="white"/>
</g>
<g clip-path="url(#clip1_37_4710)">
<path d="M129.098 17.3959L131.177 5.19666H134.502L132.422 17.3959H129.098ZM144.435 5.45964C143.777 5.21249 142.744 4.94727 141.455 4.94727C138.17 4.94727 135.855 6.60186 135.835 8.97322C135.817 10.7261 137.488 11.7041 138.749 12.2876C140.043 12.8857 140.479 13.267 140.472 13.8008C140.464 14.6186 139.439 14.992 138.483 14.992C137.152 14.992 136.445 14.8071 135.353 14.3518L134.924 14.158L134.458 16.8888C135.234 17.2295 136.671 17.5244 138.162 17.5397C141.657 17.5397 143.926 15.904 143.952 13.3716C143.964 11.9838 143.079 10.9279 141.16 10.0571C139.998 9.49276 139.286 9.11618 139.294 8.54473C139.294 8.03765 139.896 7.49542 141.198 7.49542C142.285 7.47854 143.073 7.71565 143.687 7.96281L143.985 8.10358L144.435 5.45964ZM152.992 5.19647H150.423C149.627 5.19647 149.031 5.41371 148.682 6.20813L143.743 17.3879H147.235C147.235 17.3879 147.806 15.8847 147.935 15.5546C148.317 15.5546 151.709 15.5599 152.194 15.5599C152.293 15.987 152.598 17.3879 152.598 17.3879H155.684L152.992 5.1961V5.19647ZM148.916 13.074C149.191 12.3711 150.24 9.66376 150.24 9.66376C150.221 9.69623 150.513 8.95745 150.681 8.49942L150.906 9.55121C150.906 9.55121 151.543 12.4632 151.676 13.0738H148.916V13.074ZM126.276 5.19647L123.02 13.5158L122.673 11.8252C122.067 9.87633 120.179 7.76482 118.068 6.70773L121.045 17.3765L124.563 17.3726L129.798 5.19635L126.276 5.19629" fill="#0E4595"/>
<path d="M119.982 5.1958H114.621L114.578 5.44962C118.75 6.45941 121.51 8.8997 122.656 11.8322L121.49 6.22609C121.289 5.45361 120.705 5.22303 119.983 5.19611" fill="#F2AE14"/>
</g>
<g clip-path="url(#clip2_37_4710)">
<path d="M182.465 20.0025V12.2114H190.719L191.604 13.3657L192.52 12.2114H222.46V19.4652C222.46 19.4652 221.679 19.9925 220.773 20.0025H204.191L203.191 18.7736V20.0025H199.923V17.903C199.923 17.903 199.475 18.1965 198.51 18.1965H197.395V20.0025H192.445L191.559 18.8234L190.664 20.0025H182.465Z" fill="white"/>
<path d="M172.833 6.33587L174.694 1.99756H177.913L178.967 4.42542V1.99756H182.967L183.594 3.75378L184.201 1.99756H202.156V2.87816C202.156 2.87816 203.102 1.99756 204.649 1.99756L210.475 2.01746L211.515 4.41547V1.99756H214.863L215.783 3.37567V1.99756H219.161V9.79358H215.783L214.903 8.41049V9.79358H209.987L209.495 8.56473H208.171L207.684 9.79358H204.35C203.017 9.79358 202.161 8.92791 202.161 8.92791V9.79358H197.127L196.127 8.56473V9.79358H177.435L176.942 8.56473H175.624L175.132 9.79358H172.833V6.33587Z" fill="white"/>
<path d="M175.35 2.96289L172.843 8.79871H174.475L174.937 7.62956H177.629L178.092 8.79871H179.763L177.256 2.96289H175.35ZM176.281 4.31613L177.101 6.35593H175.46L176.281 4.31613Z" fill="#016FD0"/>
<path d="M179.933 8.79334V2.95752L182.256 2.96747L183.604 6.72867L184.923 2.95752H187.226V8.79334H185.768V4.49483L184.221 8.79334H182.943L181.39 4.49483V8.79334H179.933Z" fill="#016FD0"/>
<path d="M188.226 8.79334V2.95752H192.987V4.26101H189.703V5.261H192.907V6.48986H189.698V7.52469H192.982V8.79334H188.226Z" fill="#016FD0"/>
<path d="M193.828 2.96289V8.79871H195.286V6.72409H195.898L197.649 8.79871H199.43L197.51 6.64946C198.296 6.58478 199.112 5.90817 199.112 4.85842C199.112 3.62956 198.147 2.96786 197.072 2.96786L193.828 2.96289ZM195.286 4.26637H196.953C197.351 4.26637 197.644 4.5798 197.644 4.87831C197.644 5.26637 197.266 5.49025 196.972 5.49025H195.286V4.26637Z" fill="#016FD0"/>
<path d="M201.197 8.79334H199.709V2.95752H201.197V8.79334Z" fill="#016FD0"/>
<path d="M204.728 8.79374H204.405C202.848 8.79374 201.907 7.56986 201.907 5.90319C201.907 4.19672 202.843 2.96289 204.803 2.96289H206.415V4.34597H204.748C203.952 4.34597 203.385 4.96786 203.385 5.91811C203.385 7.04747 204.032 7.52011 204.957 7.52011H205.34L204.728 8.79374Z" fill="#016FD0"/>
<path d="M207.903 2.9625L205.396 8.79334H207.027L207.49 7.62419H210.182L210.644 8.79334H212.311L209.803 2.95752L207.903 2.9625ZM208.828 4.31573L209.649 6.35553H208.007L208.828 4.31573Z" fill="#016FD0"/>
<path d="M212.479 8.79334V2.95752H214.335L216.703 6.62419V2.95752H218.161V8.79334H216.365L213.937 5.03215V8.79334H212.479Z" fill="#016FD0"/>
<path d="M183.465 19.0023V13.1665H188.226V14.47H184.942V15.47H188.151V16.6988H184.942V17.7337H188.226V19.0023H183.465Z" fill="#016FD0"/>
<path d="M206.783 19.0023V13.1665H211.544V14.47H208.261V15.47H211.455V16.6988H208.261V17.7337H211.544V19.0023H206.783Z" fill="#016FD0"/>
<path d="M188.41 19.0023L190.729 16.1217L188.355 13.1665H190.191L191.604 14.9924L193.022 13.1665H194.788L192.445 16.0819L194.768 18.9973H192.933L191.559 17.2013L190.221 18.9973L188.41 19.0023Z" fill="#016FD0"/>
<path d="M194.942 13.1719V19.0077H196.44V17.1669H197.977C199.276 17.1669 200.261 16.4754 200.261 15.137C200.261 14.0276 199.49 13.1768 198.166 13.1768H194.942V13.1719ZM196.44 14.4903H198.057C198.475 14.4903 198.778 14.749 198.778 15.1619C198.778 15.55 198.48 15.8336 198.052 15.8336H196.44V14.4903Z" fill="#016FD0"/>
<path d="M200.888 13.1665V19.0023H202.345V16.9277H202.957L204.709 19.0023H206.49L204.569 16.8531C205.355 16.7884 206.171 16.1118 206.171 15.062C206.171 13.8332 205.206 13.1715 204.131 13.1715L200.888 13.1665ZM202.35 14.475H204.017C204.415 14.475 204.709 14.7884 204.709 15.0869C204.709 15.475 204.33 15.6988 204.037 15.6988H202.35V14.475Z" fill="#016FD0"/>
<path d="M212.221 19.0027V17.7341H215.142C215.574 17.7341 215.759 17.5002 215.759 17.2465C215.759 17.0027 215.574 16.754 215.142 16.754H213.823C212.679 16.754 212.037 16.0574 212.037 15.0077C212.037 14.0724 212.624 13.1719 214.326 13.1719H217.166L216.555 14.4853H214.097C213.629 14.4853 213.485 14.7341 213.485 14.9679C213.485 15.2117 213.664 15.4754 214.022 15.4754H215.405C216.684 15.4754 217.236 16.2017 217.236 17.152C217.236 18.1719 216.619 19.0077 215.336 19.0077H212.221V19.0027Z" fill="#016FD0"/>
<path d="M217.575 19.0027V17.7341H220.495C220.928 17.7341 221.112 17.5002 221.112 17.2465C221.112 17.0027 220.928 16.754 220.495 16.754H219.177C218.032 16.754 217.391 16.0574 217.391 15.0077C217.391 14.0724 217.978 13.1719 219.679 13.1719H222.52L221.908 14.4853H219.45C218.983 14.4853 218.838 14.7341 218.838 14.9679C218.838 15.2117 219.017 15.4754 219.376 15.4754H220.759C222.037 15.4754 222.59 16.2017 222.59 17.152C222.59 18.1719 221.973 19.0077 220.689 19.0077H217.575V19.0027Z" fill="#016FD0"/>
</g>
<defs>
<clipPath id="clip0_37_4710">
<rect width="36.6667" height="22" fill="white" transform="translate(61.5)"/>
</clipPath>
<clipPath id="clip1_37_4710">
<rect width="42.6667" height="16" fill="white" transform="translate(114.167 3)"/>
</clipPath>
<clipPath id="clip2_37_4710">
<rect width="49.7512" height="18" fill="white" transform="translate(172.833 2)"/>
</clipPath>
</defs>
</svg>
